{
  "accessors": [
    {
      "bufferView": 1,
      "componentType": 5126,
      "count": 3834,
      "max": [
        1220.4720458984375,
        1220.4720458984375,
        118.11019897460938
      ],
      "min": [
        0.0,
        0.0,
        -0.39370080828666687
      ],
      "type": "VEC3"
    },
    {
      "bufferView": 1,
      "byteOffset": 46008,
      "componentType": 5126,
      "count": 3834,
      "max": [
        1.0,
        1.0,
        1.0
      ],
      "min": [
        -1.0,
        -1.0,
        -1.0
      ],
      "type": "VEC3"
    },
    {
      "bufferView": 0,
      "componentType": 5125,
      "count": 8097,
      "type": "SCALAR"
    }
  ],
  "asset": {
    "extras": {
      "author": "Grandsloth (https://sketchfab.com/Grandsloth)",
      "license": "CC-BY-4.0 (http://creativecommons.org/licenses/by/4.0/)",
      "source": "https://sketchfab.com/3d-models/simple-maze-8802b451d74f4eb2bb547cab14aeee07",
      "title": "Simple Maze"
    },
    "generator": "Sketchfab-12.68.0",
    "version": "2.0"
  },
  "bufferViews": [
    {
      "buffer": 0,
      "byteLength": 32388,
      "name": "floatBufferViews",
      "target": 34963
    },
    {
      "buffer": 0,
      "byteLength": 92016,
      "byteOffset": 32388,
      "byteStride": 12,
      "name": "floatBufferViews",
      "target": 34962
    }
  ],
  "buffers": [
    {
      "byteLength": 124404,
      "uri": "scene.bin"
    }
  ],
  "extensionsRequired": [
    "KHR_materials_pbrSpecularGlossiness"
  ],
  "extensionsUsed": [
    "KHR_materials_pbrSpecularGlossiness"
  ],
  "materials": [
    {
      "extensions": {
        "KHR_materials_pbrSpecularGlossiness": {
          "diffuseFactor": [
            0.8648245820318267,
            0.8648245820318267,
            0.8648245820318267,
            1.0
          ],
          "glossinessFactor": 0.2875261606660279,
          "specularFactor": [
            0.0,
            0.0,
            0.0
          ]
        }
      },
      "name": "material"
    }
  ],
  "meshes": [
    {
      "name": "Material2",
      "primitives": [
        {
          "attributes": {
            "NORMAL": 1,
            "POSITION": 0
          },
          "indices": 2,
          "material": 0,
          "mode": 4
        }
      ]
    }
  ],
  "nodes": [
    {
      "children": [
        1
      ],
      "matrix": [
        0.023164331912994385,
        0.0,
        0.0,
        0.0,
        0.0,
        5.143514927973133e-18,
        -0.023164331912994385,
        0.0,
        0.0,
        0.023164331912994385,
        5.143514927973133e-18,
        0.0,
        0.0,
        0.0,
        0.0,
        1.0
      ],
      "name": "Sketchfab_model"
    },
    {
      "children": [
        2
      ],
      "name": "Collada visual scene group"
    },
    {
      "children": [
        5,
        3
      ],
      "name": "SketchUp"
    },
    {
      "children": [
        4
      ],
      "matrix": [
        -0.7417349,
        0.6706932,
        3.469447e-18,
        0.0,
        -0.03703991,
        -0.04096328,
        0.9984739,
        0.0,
        0.6696696,
        0.7406029,
        0.0552263,
        0.0,
        1184.776,
        1273.432,
        4.061431,
        1.0
      ],
      "name": "skp_camera_Last_Saved_SketchUp_View"
    },
    {
      "name": "ID1"
    },
    {
      "mesh": 0,
      "name": "Material2"
    }
  ],
  "scene": 0,
  "scenes": [
    {
      "name": "Sketchfab_Scene",
      "nodes": [
        0
      ]
    }
  ]
}
