{
  "accessors": [
    {
      "bufferView": 2,
      "componentType": 5126,
      "count": 3346,
      "max": [
        2.867856979370117,
        6.20800256729126,
        1.0126930475234985
      ],
      "min": [
        -2.983142852783203,
        0.022446632385253906,
        -1.7084848880767822
      ],
      "type": "VEC3"
    },
    {
      "bufferView": 2,
      "byteOffset": 40152,
      "componentType": 5126,
      "count": 3346,
      "max": [
        0.9984229803085327,
        0.9991075992584229,
        0.9998037815093994
      ],
      "min": [
        -0.999984085559845,
        -0.9999209046363831,
        -0.9998262524604797
      ],
      "type": "VEC3"
    },
    {
      "bufferView": 1,
      "componentType": 5126,
      "count": 3346,
      "max": [
        0.5618492364883423,
        0.4917173385620117
      ],
      "min": [
        0.0005714856088161469,
        0.0005696117877960205
      ],
      "type": "VEC2"
    },
    {
      "bufferView": 1,
      "byteOffset": 26768,
      "componentType": 5126,
      "count": 3346,
      "max": [
        0.5618492364883423,
        0.4917173385620117
      ],
      "min": [
        0.0005714856088161469,
        0.0005696117877960205
      ],
      "type": "VEC2"
    },
    {
      "bufferView": 1,
      "byteOffset": 53536,
      "componentType": 5126,
      "count": 3346,
      "max": [
        0.5618492364883423,
        0.4917173385620117
      ],
      "min": [
        0.0005714856088161469,
        0.0005696117877960205
      ],
      "type": "VEC2"
    },
    {
      "bufferView": 0,
      "componentType": 5125,
      "count": 17316,
      "type": "SCALAR"
    },
    {
      "bufferView": 2,
      "byteOffset": 80304,
      "componentType": 5126,
      "count": 2405,
      "max": [
        1.0506374835968018,
        2.1107664108276367,
        0.8741050958633423
      ],
      "min": [
        -1.0756595134735107,
        0.02137613296508789,
        -0.8752369284629822
      ],
      "type": "VEC3"
    },
    {
      "bufferView": 2,
      "byteOffset": 109164,
      "componentType": 5126,
      "count": 2405,
      "max": [
        0.9998968839645386,
        0.9980183243751526,
        0.9999924302101135
      ],
      "min": [
        -0.9989963173866272,
        -0.9999951720237732,
        -0.9974136352539063
      ],
      "type": "VEC3"
    },
    {
      "bufferView": 1,
      "byteOffset": 80304,
      "componentType": 5126,
      "count": 2405,
      "max": [
        0.7163447141647339,
        0.7109142541885376
      ],
      "min": [
        0.007300000172108412,
        0.007799983024597168
      ],
      "type": "VEC2"
    },
    {
      "bufferView": 1,
      "byteOffset": 99544,
      "componentType": 5126,
      "count": 2405,
      "max": [
        0.7163447141647339,
        0.7109142541885376
      ],
      "min": [
        0.007300000172108412,
        0.007799983024597168
      ],
      "type": "VEC2"
    },
    {
      "bufferView": 1,
      "byteOffset": 118784,
      "componentType": 5126,
      "count": 2405,
      "max": [
        0.7163447141647339,
        0.7109142541885376
      ],
      "min": [
        0.007300000172108412,
        0.007799983024597168
      ],
      "type": "VEC2"
    },
    {
      "bufferView": 0,
      "byteOffset": 69264,
      "componentType": 5125,
      "count": 11565,
      "type": "SCALAR"
    }
  ],
  "asset": {
    "extras": {
      "author": "CREATRBOI (https://sketchfab.com/CREATRBOI)",
      "license": "CC-BY-4.0 (http://creativecommons.org/licenses/by/4.0/)",
      "source": "https://sketchfab.com/3d-models/the-amazing-superhero-the-incredible-fatman-2654038b0f27448eb4d0f36f61f5345c",
      "title": "The amazing superhero: the incredible Fatman!!!"
    },
    "generator": "Sketchfab-13.74.0",
    "version": "2.0"
  },
  "bufferViews": [
    {
      "buffer": 0,
      "byteLength": 115524,
      "name": "floatBufferViews",
      "target": 34963
    },
    {
      "buffer": 0,
      "byteLength": 138024,
      "byteOffset": 115524,
      "byteStride": 8,
      "name": "floatBufferViews",
      "target": 34962
    },
    {
      "buffer": 0,
      "byteLength": 138024,
      "byteOffset": 253548,
      "byteStride": 12,
      "name": "floatBufferViews",
      "target": 34962
    }
  ],
  "buffers": [
    {
      "byteLength": 391572,
      "uri": "scene.bin"
    }
  ],
  "extensionsRequired": [
    "KHR_materials_pbrSpecularGlossiness"
  ],
  "extensionsUsed": [
    "KHR_materials_pbrSpecularGlossiness"
  ],
  "images": [
    {
      "uri": "textures/material_diffuse.png"
    },
    {
      "uri": "textures/material_specularGlossiness.png"
    },
    {
      "uri": "textures/material_1_diffuse.png"
    },
    {
      "uri": "textures/material_1_specularGlossiness.png"
    }
  ],
  "materials": [
    {
      "alphaMode": "MASK",
      "doubleSided": true,
      "extensions": {
        "KHR_materials_pbrSpecularGlossiness": {
          "diffuseFactor": [
            1.0,
            1.0,
            1.0,
            1.0
          ],
          "diffuseTexture": {
            "index": 0
          },
          "glossinessFactor": 1.0,
          "specularFactor": [
            1.0,
            1.0,
            1.0
          ],
          "specularGlossinessTexture": {
            "index": 1
          }
        }
      },
      "name": "material"
    },
    {
      "doubleSided": true,
      "extensions": {
        "KHR_materials_pbrSpecularGlossiness": {
          "diffuseFactor": [
            1.0,
            1.0,
            1.0,
            1.0
          ],
          "diffuseTexture": {
            "index": 2
          },
          "glossinessFactor": 1.0,
          "specularFactor": [
            1.0,
            1.0,
            1.0
          ],
          "specularGlossinessTexture": {
            "index": 3
          }
        }
      },
      "name": "material_1"
    }
  ],
  "meshes": [
    {
      "name": "Object_0",
      "primitives": [
        {
          "attributes": {
            "NORMAL": 1,
            "POSITION": 0,
            "TEXCOORD_0": 2,
            "TEXCOORD_1": 3,
            "TEXCOORD_2": 4
          },
          "indices": 5,
          "material": 0,
          "mode": 4
        }
      ]
    },
    {
      "name": "Object_1",
      "primitives": [
        {
          "attributes": {
            "NORMAL": 7,
            "POSITION": 6,
            "TEXCOORD_0": 8,
            "TEXCOORD_1": 9,
            "TEXCOORD_2": 10
          },
          "indices": 11,
          "material": 1,
          "mode": 4
        }
      ]
    }
  ],
  "nodes": [
    {
      "children": [
        1
      ],
      "matrix": [
        1.0,
        0.0,
        0.0,
        0.0,
        0.0,
        2.220446049250313e-16,
        -1.0,
        0.0,
        0.0,
        1.0,
        2.220446049250313e-16,
        0.0,
        0.0,
        0.0,
        0.0,
        1.0
      ],
      "name": "Sketchfab_model"
    },
    {
      "children": [
        2
      ],
      "name": "root"
    },
    {
      "children": [
        3
      ],
      "matrix": [
        1.0,
        0.0,
        0.0,
        0.0,
        0.0,
        2.220446049250313e-16,
        1.0,
        0.0,
        0.0,
        -1.0,
        2.220446049250313e-16,
        0.0,
        0.0,
        0.0,
        0.0,
        1.0
      ],
      "name": "GLTF_SceneRootNode"
    },
    {
      "children": [
        4,
        6
      ],
      "name": "root_0"
    },
    {
      "children": [
        5
      ],
      "matrix": [
        0.2735300362110138,
        0.0,
        0.0,
        0.0,
        0.0,
        0.07738965004682541,
        0.0,
        0.0,
        0.0,
        0.0,
        0.16206367313861847,
        0.0,
        -0.030299942940473557,
        -0.3387371301651001,
        0.46177735924720764,
        1.0
      ],
      "name": "node_id36_1"
    },
    {
      "mesh": 0,
      "name": "Object_5"
    },
    {
      "children": [
        7
      ],
      "matrix": [
        0.207379549741745,
        0.0,
        0.0,
        0.0,
        0.0,
        0.207379549741745,
        0.0,
        0.0,
        0.0,
        0.0,
        0.207379549741745,
        0.0,
        -0.030326128005981445,
        0.034773606806993484,
        0.40480878949165344,
        1.0
      ],
      "name": "node_id44_2"
    },
    {
      "mesh": 1,
      "name": "Object_7"
    }
  ],
  "samplers": [
    {
      "magFilter": 9729,
      "minFilter": 9987,
      "wrapS": 10497,
      "wrapT": 10497
    }
  ],
  "scene": 0,
  "scenes": [
    {
      "name": "Sketchfab_Scene",
      "nodes": [
        0
      ]
    }
  ],
  "textures": [
    {
      "sampler": 0,
      "source": 0
    },
    {
      "sampler": 0,
      "source": 1
    },
    {
      "sampler": 0,
      "source": 2
    },
    {
      "sampler": 0,
      "source": 3
    }
  ]
}
